<svg width="319" height="64" viewBox="0 0 319 64" fill="none" xmlns="http://www.w3.org/2000/svg">
<path d="M16 38C25.2 38 32.6 36.65 32.6 28.65C32.6 21.15 26.85 20.65 21.5 20.45V18.45C25.25 18.15 30 18 30 11.4C30 4.45 25.25 2.75 15.4 2.75H3V38H16ZM11.05 9.8H16.45C19.65 9.8 21.95 9.8 21.95 12.95C21.95 16.15 19.65 16.15 16.45 16.15H11.05V9.8ZM11.05 23.15H17C21.75 23.15 24.55 23.15 24.55 27.1C24.55 31 21.75 30.95 17 30.95H11.05V23.15ZM71.0055 38L60.8055 2.75H44.2555L34.1055 38H42.2555L45.4055 26.7H59.7055L62.8555 38H71.0055ZM51.5055 4.75H53.5555L57.7555 19.7H47.3555L51.5055 4.75ZM104.07 28.3C104.07 20.95 94.1195 18.15 87.6195 15.95C81.9695 14.05 81.1695 13.45 81.1695 11.85C81.1695 10.1 83.3695 9.3 86.9695 9.3C91.3195 9.3 94.6195 10.45 94.6195 14.75H102.62C102.62 7.75 97.7695 2.25 86.9695 2.25C77.8695 2.25 73.1195 5.55 73.1195 11.55C73.1195 18.45 79.1695 20.45 86.6195 22.95C91.7695 24.7 96.0695 25.85 96.0695 28.4C96.0695 30.3 94.3695 31.45 89.2195 31.45C82.2195 31.45 79.5695 29.75 79.5695 24.4H71.5195C71.5195 33.3 76.2695 38.5 88.9695 38.5C99.8195 38.5 104.07 34.35 104.07 28.3ZM133.778 17.35H116.128V2.75H108.078V38H116.128V24.35H133.778V38H141.828V2.75H133.778V17.35Z" fill="#141414"/>
<path d="M146.324 2.75V9.8H157.874V38H165.874V9.8H177.374V2.75H146.324ZM188.931 38V25.6H202.681V38H210.731V26.75C210.731 24 209.181 22.5 206.431 22.5H201.281V20.5C205.531 20 210.281 18.4 210.281 12.6C210.281 4.7 202.931 2.75 194.531 2.75H180.881V38H188.931ZM188.931 9.8H194.531C199.281 9.8 202.231 9.8 202.231 14.2C202.231 18.6 199.281 18.6 194.531 18.6H188.931V9.8ZM251.132 38L240.932 2.75H224.382L214.232 38H222.382L225.532 26.7H239.832L242.982 38H251.132ZM231.632 4.75H233.682L237.882 19.7H227.482L231.632 4.75ZM267.66 2.75H254.66V38H267.66C277.06 38 286.91 35.55 286.91 20.35C286.91 5.2 277.06 2.75 267.66 2.75ZM262.71 30.95V9.8H267.66C273.91 9.8 278.86 10.3 278.86 20.35C278.86 30.45 273.91 30.95 267.66 30.95H262.71ZM316.579 38V30.95H299.429V23.85H314.079V16.85H299.429V9.8H316.579V2.75H291.379V38H316.579Z" fill="#E10028"/>
<path d="M5.59502 61.06C6.66302 61.06 7.56302 60.628 8.06702 59.812L7.43102 59.38C6.99902 60.016 6.32702 60.304 5.59502 60.304C4.21502 60.304 3.20702 59.332 3.20702 57.844C3.20702 56.368 4.21502 55.384 5.59502 55.384C6.32702 55.384 6.99902 55.684 7.43102 56.32L8.06702 55.888C7.56302 55.06 6.66302 54.64 5.59502 54.64C3.71102 54.64 2.34302 55.96 2.34302 57.844C2.34302 59.728 3.71102 61.06 5.59502 61.06ZM12.2153 61.06C14.0633 61.06 15.4193 59.716 15.4193 57.844C15.4193 55.972 14.0633 54.64 12.2153 54.64C10.3673 54.64 8.99927 55.972 8.99927 57.844C8.99927 59.716 10.3673 61.06 12.2153 61.06ZM12.2153 60.304C10.8713 60.304 9.86327 59.32 9.86327 57.844C9.86327 56.368 10.8713 55.384 12.2153 55.384C13.5593 55.384 14.5553 56.368 14.5553 57.844C14.5553 59.32 13.5593 60.304 12.2153 60.304ZM19.3315 54.64C18.3355 54.64 17.3995 54.952 16.7635 55.492L17.1475 56.128C17.6635 55.672 18.4315 55.384 19.2475 55.384C20.4235 55.384 21.0355 55.972 21.0355 57.052V57.436H19.0315C17.2195 57.436 16.5955 58.252 16.5955 59.224C16.5955 60.316 17.4715 61.06 18.8995 61.06C19.9435 61.06 20.6875 60.664 21.0715 60.016V61H21.8875V57.088C21.8875 55.456 20.9635 54.64 19.3315 54.64ZM19.0315 60.388C18.0235 60.388 17.4355 59.932 17.4355 59.2C17.4355 58.552 17.8315 58.072 19.0555 58.072H21.0355V59.104C20.6995 59.932 19.9915 60.388 19.0315 60.388ZM24.2017 61H25.0537V52.096H24.2017V61ZM35.473 52.096V55.888C34.945 55.072 34.081 54.64 33.073 54.64C31.273 54.64 29.929 55.936 29.929 57.844C29.929 59.752 31.273 61.06 33.073 61.06C34.117 61.06 34.993 60.604 35.509 59.752V61H36.325V52.096H35.473ZM33.145 60.304C31.801 60.304 30.793 59.32 30.793 57.844C30.793 56.368 31.801 55.384 33.145 55.384C34.477 55.384 35.485 56.368 35.485 57.844C35.485 59.32 34.477 60.304 33.145 60.304ZM44.2058 57.844C44.2058 55.948 42.9218 54.64 41.1458 54.64C39.3698 54.64 38.0618 55.972 38.0618 57.844C38.0618 59.716 39.4058 61.06 41.3738 61.06C42.3698 61.06 43.2458 60.7 43.8098 60.028L43.3298 59.476C42.8498 60.028 42.1658 60.304 41.3978 60.304C40.0178 60.304 39.0098 59.428 38.9138 58.108H44.1938C44.1938 58.012 44.2058 57.916 44.2058 57.844ZM41.1458 55.372C42.3818 55.372 43.2818 56.236 43.3898 57.472H38.9138C39.0218 56.236 39.9218 55.372 41.1458 55.372ZM45.94 61H46.792V52.096H45.94V61ZM49.5946 53.308C49.9546 53.308 50.2186 53.032 50.2186 52.684C50.2186 52.36 49.9426 52.096 49.5946 52.096C49.2466 52.096 48.9706 52.372 48.9706 52.696C48.9706 53.032 49.2466 53.308 49.5946 53.308ZM49.1626 61H50.0146V54.688H49.1626V61ZM56.8493 54.688L54.4613 60.064L52.0973 54.688H51.2093L54.0053 61H54.8813L57.6893 54.688H56.8493ZM64.2214 57.844C64.2214 55.948 62.9374 54.64 61.1614 54.64C59.3854 54.64 58.0774 55.972 58.0774 57.844C58.0774 59.716 59.4214 61.06 61.3894 61.06C62.3854 61.06 63.2614 60.7 63.8254 60.028L63.3454 59.476C62.8654 60.028 62.1814 60.304 61.4134 60.304C60.0334 60.304 59.0254 59.428 58.9294 58.108H64.2094C64.2094 58.012 64.2214 57.916 64.2214 57.844ZM61.1614 55.372C62.3974 55.372 63.2974 56.236 63.4054 57.472H58.9294C59.0374 56.236 59.9374 55.372 61.1614 55.372ZM66.7716 55.924V54.688H65.9556V61H66.8076V57.784C66.8076 56.296 67.6116 55.456 68.9316 55.456C68.9916 55.456 69.0636 55.468 69.1356 55.468V54.64C67.9716 54.64 67.1676 55.084 66.7716 55.924ZM71.1102 53.308C71.4702 53.308 71.7342 53.032 71.7342 52.684C71.7342 52.36 71.4582 52.096 71.1102 52.096C70.7622 52.096 70.4862 52.372 70.4862 52.696C70.4862 53.032 70.7622 53.308 71.1102 53.308ZM70.6782 61H71.5302V54.688H70.6782V61ZM79.4089 57.844C79.4089 55.948 78.1249 54.64 76.3489 54.64C74.5729 54.64 73.2649 55.972 73.2649 57.844C73.2649 59.716 74.6089 61.06 76.5769 61.06C77.5729 61.06 78.4489 60.7 79.0129 60.028L78.5329 59.476C78.0529 60.028 77.3689 60.304 76.6009 60.304C75.2209 60.304 74.2129 59.428 74.1169 58.108H79.3969C79.3969 58.012 79.4089 57.916 79.4089 57.844ZM76.3489 55.372C77.5849 55.372 78.4849 56.236 78.5929 57.472H74.1169C74.2249 56.236 75.1249 55.372 76.3489 55.372ZM82.8351 61.06C84.4791 61.06 85.4391 60.352 85.4391 59.26C85.4391 56.836 81.3471 58.12 81.3471 56.416C81.3471 55.816 81.8511 55.372 82.9911 55.372C83.6391 55.372 84.2991 55.528 84.8511 55.912L85.2231 55.228C84.6951 54.868 83.8071 54.64 82.9911 54.64C81.3831 54.64 80.4951 55.408 80.4951 56.44C80.4951 58.936 84.5871 57.64 84.5871 59.284C84.5871 59.908 84.0951 60.316 82.8951 60.316C82.0071 60.316 81.1551 60.004 80.6511 59.608L80.2671 60.28C80.7831 60.724 81.7911 61.06 82.8351 61.06ZM92.3628 54.64C91.3668 54.64 90.4308 54.952 89.7948 55.492L90.1788 56.128C90.6948 55.672 91.4628 55.384 92.2788 55.384C93.4548 55.384 94.0668 55.972 94.0668 57.052V57.436H92.0628C90.2508 57.436 89.6268 58.252 89.6268 59.224C89.6268 60.316 90.5028 61.06 91.9308 61.06C92.9748 61.06 93.7188 60.664 94.1028 60.016V61H94.9188V57.088C94.9188 55.456 93.9948 54.64 92.3628 54.64ZM92.0628 60.388C91.0548 60.388 90.4668 59.932 90.4668 59.2C90.4668 58.552 90.8628 58.072 92.0868 58.072H94.0668V59.104C93.7308 59.932 93.0228 60.388 92.0628 60.388ZM98.0489 55.924V54.688H97.2329V61H98.0849V57.784C98.0849 56.296 98.8889 55.456 100.209 55.456C100.269 55.456 100.341 55.468 100.413 55.468V54.64C99.2489 54.64 98.4449 55.084 98.0489 55.924ZM104.477 61.06C106.325 61.06 107.681 59.716 107.681 57.844C107.681 55.972 106.325 54.64 104.477 54.64C102.629 54.64 101.261 55.972 101.261 57.844C101.261 59.716 102.629 61.06 104.477 61.06ZM104.477 60.304C103.133 60.304 102.125 59.32 102.125 57.844C102.125 56.368 103.133 55.384 104.477 55.384C105.821 55.384 106.817 56.368 106.817 57.844C106.817 59.32 105.821 60.304 104.477 60.304ZM114.256 54.688V58C114.256 59.44 113.428 60.292 112.108 60.292C110.908 60.292 110.212 59.608 110.212 58.264V54.688H109.36V58.348C109.36 60.16 110.416 61.06 112.024 61.06C113.032 61.06 113.848 60.616 114.292 59.848V61H115.108V54.688H114.256ZM120.711 54.64C119.619 54.64 118.767 55.084 118.311 55.852V54.688H117.495V61H118.347V57.688C118.347 56.248 119.199 55.408 120.555 55.408C121.755 55.408 122.451 56.092 122.451 57.424V61H123.303V57.34C123.303 55.528 122.247 54.64 120.711 54.64ZM130.547 52.096V55.888C130.019 55.072 129.155 54.64 128.147 54.64C126.347 54.64 125.003 55.936 125.003 57.844C125.003 59.752 126.347 61.06 128.147 61.06C129.191 61.06 130.067 60.604 130.583 59.752V61H131.399V52.096H130.547ZM128.219 60.304C126.875 60.304 125.867 59.32 125.867 57.844C125.867 56.368 126.875 55.384 128.219 55.384C129.551 55.384 130.559 56.368 130.559 57.844C130.559 59.32 129.551 60.304 128.219 60.304ZM139.937 60.004C139.697 60.22 139.349 60.328 139.001 60.328C138.293 60.328 137.909 59.92 137.909 59.176V55.408H139.829V54.688H137.909V53.308H137.057V54.688H135.929V55.408H137.057V59.224C137.057 60.388 137.717 61.06 138.905 61.06C139.397 61.06 139.901 60.916 140.237 60.616L139.937 60.004ZM145.004 54.64C143.936 54.64 143.108 55.06 142.64 55.792V52.096H141.788V61H142.64V57.688C142.64 56.248 143.492 55.408 144.848 55.408C146.048 55.408 146.744 56.092 146.744 57.424V61H147.596V57.34C147.596 55.528 146.54 54.64 145.004 54.64ZM155.44 57.844C155.44 55.948 154.156 54.64 152.38 54.64C150.604 54.64 149.296 55.972 149.296 57.844C149.296 59.716 150.64 61.06 152.608 61.06C153.604 61.06 154.48 60.7 155.044 60.028L154.564 59.476C154.084 60.028 153.4 60.304 152.632 60.304C151.252 60.304 150.244 59.428 150.148 58.108H155.428C155.428 58.012 155.44 57.916 155.44 57.844ZM152.38 55.372C153.616 55.372 154.516 56.236 154.624 57.472H150.148C150.256 56.236 151.156 55.372 152.38 55.372ZM168.799 54.688L166.795 60.052L164.779 54.688H164.047L162.019 60.052L160.039 54.688H159.223L161.599 61H162.403L164.395 55.828L166.387 61H167.191L169.579 54.688H168.799ZM173.266 61.06C175.114 61.06 176.47 59.716 176.47 57.844C176.47 55.972 175.114 54.64 173.266 54.64C171.418 54.64 170.05 55.972 170.05 57.844C170.05 59.716 171.418 61.06 173.266 61.06ZM173.266 60.304C171.922 60.304 170.914 59.32 170.914 57.844C170.914 56.368 171.922 55.384 173.266 55.384C174.61 55.384 175.606 56.368 175.606 57.844C175.606 59.32 174.61 60.304 173.266 60.304ZM179.025 55.924V54.688H178.209V61H179.061V57.784C179.061 56.296 179.865 55.456 181.185 55.456C181.245 55.456 181.317 55.468 181.389 55.468V54.64C180.225 54.64 179.421 55.084 179.025 55.924ZM182.932 61H183.784V52.096H182.932V61ZM191.063 52.096V55.888C190.535 55.072 189.671 54.64 188.663 54.64C186.863 54.64 185.519 55.936 185.519 57.844C185.519 59.752 186.863 61.06 188.663 61.06C189.707 61.06 190.583 60.604 191.099 59.752V61H191.915V52.096H191.063ZM188.735 60.304C187.391 60.304 186.383 59.32 186.383 57.844C186.383 56.368 187.391 55.384 188.735 55.384C190.067 55.384 191.075 56.368 191.075 57.844C191.075 59.32 190.067 60.304 188.735 60.304Z" fill="black"/>
</svg>
