<svg width="319" height="64" viewBox="0 0 561 101" fill="none" xmlns="http://www.w3.org/2000/svg">
<path d="M101 50.5C101 40.512 98.0382 30.7484 92.4892 22.4437C86.9402 14.139 79.0532 7.66631 69.8255 3.84408C60.5978 0.0218581 50.444 -0.97821 40.6479 0.970343C30.8519 2.9189 21.8537 7.72856 14.7911 14.7911C7.72856 21.8537 2.9189 30.8519 0.970343 40.6479C-0.97821 50.444 0.0218582 60.5978 3.84408 69.8255C7.66631 79.0532 14.139 86.9402 22.4437 92.4892C30.7484 98.0382 40.512 101 50.5 101V76.0025C45.4561 76.0025 40.5254 74.5068 36.3316 71.7046C32.1377 68.9023 28.869 64.9194 26.9388 60.2594C25.0085 55.5994 24.5035 50.4717 25.4875 45.5247C26.4715 40.5777 28.9004 36.0336 32.467 32.467C36.0336 28.9004 40.5777 26.4715 45.5247 25.4875C50.4717 24.5035 55.5994 25.0085 60.2594 26.9388C64.9194 28.869 68.9023 32.1377 71.7046 36.3316C74.5068 40.5254 76.0025 45.4561 76.0025 50.5H101Z" fill="#E10028"/>
<rect x="76" y="76" width="25" height="25" fill="#141414"/>
<path d="M150.92 74.8199C155.47 73.2099 158.06 69.3599 158.06 64.2499C158.06 56.4799 152.46 51.0899 143.22 51.0899H119V100.09H144.83C154.35 100.09 160.23 94.1399 160.23 86.2299C160.23 80.0699 156.8 75.8699 150.92 74.8199ZM141.4 59.7699C145.39 59.7699 147.42 61.7299 147.42 65.0199C147.42 68.7299 145.39 70.8999 141.4 70.8999H129.22V59.7699H141.4ZM143.15 91.4099H129.22V79.4399H143.15C147.42 79.4399 149.59 81.5399 149.59 85.3199C149.59 89.1699 147.42 91.4099 143.15 91.4099Z" fill="#141414"/>
<path d="M203.849 100.09H214.699L195.449 51.0899H183.549L164.299 100.09H175.149L179.279 89.0999H199.719L203.849 100.09ZM182.779 79.5799L189.499 61.5899L196.219 79.5799H182.779Z" fill="#141414"/>
<path d="M240.566 101C252.466 101 260.586 95.1199 260.586 85.5299C260.586 74.3299 248.616 72.0199 241.686 70.6899C234.266 69.3599 231.816 68.1699 231.816 65.2299C231.816 61.8699 234.686 59.6299 240.776 59.6299C245.256 59.6299 250.086 60.8899 254.496 63.6199L259.326 55.1499C254.146 51.9999 248.266 50.1799 241.406 50.1799C232.166 50.1799 220.756 53.5399 220.756 66.3499C220.756 74.6099 225.516 77.4099 240.146 80.6299C245.536 81.7499 249.386 82.3799 249.386 86.1599C249.386 89.7299 246.026 91.6199 240.916 91.6199C235.386 91.6199 228.316 89.2399 224.186 86.0899L219.356 94.4899C222.786 97.0799 231.396 101 240.566 101Z" fill="#141414"/>
<path d="M302.489 51.0899V70.5499H280.089V51.0899H269.869V100.09H280.089V80.0699H302.489V100.09H312.709V51.0899H302.489Z" fill="#141414"/>
<path d="M361.108 51.0899H320.158V60.5399H335.558V100.09H345.708V60.5399H361.108V51.0899Z" fill="#141414"/>
<path d="M396.652 100.09H408.902L396.162 81.5399C403.302 79.5799 407.432 73.9799 407.432 66.6299C407.432 57.4599 400.992 51.0899 390.422 51.0899H368.512V100.09H378.732V82.2399H385.312L396.652 100.09ZM378.732 60.6099H390.142C394.552 60.6099 396.862 62.7099 396.862 66.6999C396.862 70.6199 394.552 72.7199 390.142 72.7199H378.732V60.6099Z" fill="#141414"/>
<path d="M451.857 100.09H462.707L443.457 51.0899H431.557L412.307 100.09H423.157L427.287 89.0999H447.727L451.857 100.09ZM430.787 79.5799L437.507 61.5899L444.227 79.5799H430.787Z" fill="#141414"/>
<path d="M489.204 51.0899H470.094V100.09H489.204C503.974 100.09 514.964 90.5699 514.964 75.5899C514.964 60.5399 503.974 51.0899 489.204 51.0899ZM489.204 90.5699H480.314V60.6099H489.204C498.374 60.6099 504.324 66.4899 504.324 75.5899C504.324 84.6899 498.374 90.5699 489.204 90.5699Z" fill="#141414"/>
<path d="M533.908 90.6399V80.0699H558.688V70.5499H533.908V60.5399H559.808V51.0899H523.688V100.09H560.368V90.6399H533.908Z" fill="#141414"/>
</svg>
